<?xml version="1.0" standalone="no"?><!-- Generator: Gravit.io --><svg xmlns="http://www.w3.org/2000/svg" xmlns:xlink="http://www.w3.org/1999/xlink" style="isolation:isolate" viewBox="0 0 240 39" width="240" height="39"><defs><clipPath id="_clipPath_j2fbXNyvqe6gSNuRrChcy6HLsXdfFqPm"><rect width="240" height="39"/></clipPath></defs><g clip-path="url(#_clipPath_j2fbXNyvqe6gSNuRrChcy6HLsXdfFqPm)"><path d=" M 27.967 0.879 C 20.242 0.875 12.182 2.615 4.047 4.872 C 3.014 5.08 2.006 5.756 1.473 6.592 C 0.983 7.38 0.805 8.171 0.652 9 C -0.138 13.428 -0.042 17.776 0.122 22.594 C 0.158 23.697 0.322 25.004 0.837 25.799 C 1.375 26.602 2.297 27.112 3.398 27.279 C 4.805 27.485 6.216 27.66 7.63 27.804 L 7.318 36.502 C 7.27 37.194 7.608 37.769 8.028 38.1 C 8.404 38.386 8.823 38.513 9.253 38.545 C 10.113 38.61 11.122 38.242 11.623 37.288 C 13.818 33.064 15.195 31.199 17.94 28.393 C 25.098 28.569 31.347 28.171 38.422 27.648 C 40.923 27.583 42.64 25.538 43.094 23.905 C 44.451 19.673 44.662 14.449 44.806 9.168 C 44.867 7.075 44.141 5.02 42.856 3.934 C 41.634 2.943 40.154 2.584 38.798 2.216 C 35.031 1.363 31.263 0.905 27.967 0.879 Z  M 38.257 4.189 C 39.615 4.558 40.812 4.913 41.567 5.526 C 42.827 6.865 42.785 7.756 42.767 9.201 C 42.625 14.323 42.379 19.294 41.223 23.061 C 40.725 24.466 39.857 25.466 38.217 25.617 C 31.009 26.15 24.755 26.562 17.51 26.356 C 17.225 26.347 16.949 26.456 16.747 26.658 C 13.703 29.732 12.146 31.868 9.826 36.334 C 9.772 36.436 9.655 36.498 9.511 36.509 C 9.414 36.504 9.375 36.429 9.369 36.361 L 9.683 26.929 C 9.702 26.42 9.282 25.934 8.776 25.879 C 7.084 25.717 5.397 25.511 3.716 25.259 C 2.99 25.148 2.722 24.949 2.523 24.653 C 2.177 23.828 2.185 23.318 2.158 22.525 C 1.996 17.75 1.916 13.577 2.649 9.425 C 2.717 8.811 2.947 8.183 3.191 7.658 C 3.595 7.026 4.214 6.933 4.835 6.761 C 12.791 4.564 20.575 2.921 27.903 2.916 C 31.495 3.046 35.267 3.406 38.257 4.189 Z  M 10.778 12.279 C 9.682 13.592 9.791 15.375 10.638 16.569 C 11.08 17.194 11.77 17.697 12.61 17.811 C 13.701 17.901 14.393 17.459 15.14 16.951 C 16.493 15.775 16.63 13.723 15.601 12.241 C 15.077 11.486 14.239 11.033 13.383 11.001 C 12.211 11.013 11.415 11.536 10.778 12.278 L 10.778 12.279 Z  M 22.634 11.207 C 21.542 11.242 20.659 11.998 20.12 12.814 C 19.503 13.747 19.143 14.915 19.642 16.06 C 20.602 18.263 23.919 18.236 25.242 15.997 C 25.852 14.965 25.696 13.792 25.242 12.941 C 24.79 12.091 24.106 11.398 23.111 11.239 C 22.953 11.213 22.794 11.202 22.634 11.207 Z  M 32.259 11.414 C 31.919 11.406 31.569 11.438 31.241 11.525 C 29.929 11.875 28.812 13.229 28.981 14.962 C 29.067 15.834 29.468 16.684 30.191 17.27 C 30.914 17.855 31.964 18.117 33.071 17.89 C 34.343 17.63 35.131 16.605 35.394 15.615 C 35.657 14.625 35.591 13.616 34.98 12.798 C 34.336 11.941 33.332 11.43 32.26 11.414 L 32.259 11.414 Z  M 13.294 13.037 C 13.539 13.039 13.732 13.117 13.931 13.403 C 14.376 14.045 14.252 15.018 13.803 15.408 C 13.356 15.798 13.077 15.832 12.881 15.806 C 12.685 15.779 12.486 15.644 12.308 15.392 C 11.968 14.912 11.868 14.136 12.315 13.582 C 12.553 13.266 12.99 13.069 13.295 13.037 L 13.294 13.037 Z  M 22.777 13.26 C 22.815 13.266 23.241 13.513 23.445 13.896 C 23.649 14.279 23.687 14.635 23.493 14.962 C 22.916 15.938 21.689 15.674 21.503 15.249 C 21.433 15.087 21.486 14.436 21.823 13.929 C 22.158 13.42 22.58 13.229 22.777 13.259 L 22.777 13.26 Z  M 33.341 14.008 C 33.403 14.091 33.554 14.648 33.437 15.09 C 33.319 15.532 33.127 15.805 32.657 15.901 C 32.055 16.025 31.717 15.901 31.464 15.694 C 31.21 15.489 31.039 15.142 31.002 14.771 C 30.912 13.851 31.242 13.638 31.766 13.498 C 32.376 13.348 33.066 13.61 33.341 14.008 Z " fill="rgb(255,255,255)"/><path d=" M 57.61 4.996 C 57.626 4.736 57.721 4.502 57.897 4.295 C 58.071 4.089 58.329 3.975 58.598 3.985 L 65.424 3.985 C 65.654 3.985 65.891 4.081 66.136 4.272 C 66.369 4.439 66.506 4.709 66.504 4.996 L 66.504 15.889 L 77.925 15.889 L 77.925 4.996 C 77.925 4.72 78.021 4.483 78.212 4.284 C 78.404 4.084 78.652 3.984 78.959 3.984 L 85.693 3.984 C 85.999 3.984 86.267 4.061 86.497 4.214 C 86.727 4.368 86.842 4.613 86.842 4.95 L 86.842 37.1 C 86.842 37.437 86.742 37.69 86.542 37.858 C 86.344 38.027 86.083 38.111 85.762 38.111 L 78.959 38.111 C 78.653 38.111 78.404 38.027 78.212 37.858 C 78.021 37.69 77.925 37.438 77.925 37.1 L 77.925 24.047 L 66.504 24.047 L 66.504 37.1 C 66.504 37.422 66.4 37.67 66.194 37.847 C 65.987 38.023 65.707 38.111 65.354 38.111 L 58.598 38.111 C 57.955 38.111 57.626 37.812 57.61 37.215 L 57.61 4.996 L 57.61 4.996 Z  M 120.485 37.721 C 120.286 37.889 120.075 37.996 119.853 38.042 C 119.646 38.087 119.434 38.11 119.222 38.112 L 115.752 38.112 C 115.476 38.112 115.238 38.062 115.039 37.962 C 114.839 37.862 114.671 37.728 114.533 37.56 C 114.392 37.385 114.276 37.192 114.189 36.985 C 114.096 36.769 114.02 36.546 113.959 36.319 L 113.247 33.377 C 113.017 33.852 112.684 34.392 112.247 34.997 C 111.774 35.639 111.213 36.211 110.581 36.697 C 109.907 37.227 109.102 37.671 108.168 38.031 C 107.233 38.391 106.161 38.571 104.95 38.571 C 103.204 38.571 101.618 38.234 100.193 37.56 C 98.798 36.908 97.557 35.968 96.551 34.802 C 95.548 33.638 94.77 32.278 94.219 30.722 C 93.667 29.168 93.391 27.509 93.391 25.748 L 93.391 10.695 C 93.391 10.113 93.518 9.673 93.771 9.374 C 94.023 9.075 94.425 8.926 94.977 8.926 L 100.285 8.926 C 100.945 8.926 101.396 9.036 101.641 9.259 C 101.886 9.481 102.009 9.914 102.009 10.557 L 102.009 25.517 C 102.009 26.177 102.159 26.801 102.457 27.391 C 102.756 27.981 103.15 28.501 103.641 28.953 C 104.131 29.405 104.686 29.762 105.307 30.022 C 105.927 30.282 106.559 30.412 107.203 30.412 C 107.754 30.412 108.325 30.282 108.915 30.022 C 109.509 29.759 110.059 29.406 110.546 28.976 C 111.044 28.54 111.454 28.026 111.776 27.436 C 112.098 26.846 112.258 26.222 112.258 25.564 L 112.258 10.626 C 112.258 10.366 112.308 10.106 112.408 9.845 C 112.508 9.585 112.657 9.385 112.856 9.247 C 113.055 9.125 113.243 9.041 113.419 8.995 C 113.595 8.949 113.799 8.925 114.028 8.925 L 119.222 8.925 C 119.88 8.925 120.355 9.087 120.646 9.408 C 120.937 9.73 121.083 10.159 121.083 10.695 L 121.083 36.411 C 121.083 36.701 121.018 36.97 120.888 37.215 C 120.758 37.46 120.578 37.652 120.348 37.789 L 120.485 37.721 L 120.485 37.721 Z  M 147.166 34.549 C 146.752 34.963 146.296 35.407 145.799 35.882 C 145.301 36.357 144.753 36.802 144.156 37.215 C 143.555 37.631 142.907 37.974 142.226 38.238 C 141.514 38.51 140.758 38.647 139.996 38.64 C 137.913 38.64 135.994 38.25 134.239 37.468 C 132.528 36.717 130.988 35.627 129.712 34.262 C 128.448 32.906 127.46 31.309 126.748 29.47 C 126.035 27.632 125.679 25.656 125.679 23.541 C 125.679 21.411 126.035 19.431 126.748 17.601 C 127.46 15.771 128.448 14.177 129.712 12.821 C 130.987 11.458 132.527 10.371 134.239 9.627 C 135.994 8.853 137.913 8.466 139.996 8.466 C 140.839 8.466 141.609 8.589 142.306 8.834 C 142.979 9.067 143.619 9.383 144.213 9.776 C 144.788 10.159 145.316 10.592 145.799 11.074 C 146.281 11.557 146.737 12.028 147.166 12.488 L 147.166 1.985 C 147.166 1.495 147.316 1.082 147.614 0.745 C 147.913 0.407 148.361 0.239 148.959 0.239 L 154.129 0.239 C 154.329 0.239 154.539 0.281 154.761 0.365 C 154.983 0.45 155.186 0.568 155.371 0.722 C 155.554 0.875 155.703 1.059 155.818 1.273 C 155.933 1.488 155.991 1.725 155.991 1.985 L 155.991 36.342 C 155.991 37.522 155.371 38.112 154.129 38.112 L 149.625 38.112 C 149.319 38.112 149.081 38.072 148.913 37.996 C 148.746 37.921 148.6 37.807 148.487 37.663 C 148.359 37.494 148.255 37.309 148.177 37.112 C 148.069 36.853 147.954 36.596 147.833 36.342 L 147.166 34.549 L 147.166 34.549 Z  M 133.952 23.541 C 133.944 24.507 134.104 25.468 134.423 26.38 C 134.737 27.26 135.185 28.023 135.768 28.666 C 136.356 29.314 137.072 29.834 137.87 30.194 C 138.69 30.57 139.598 30.757 140.594 30.757 C 141.574 30.757 142.497 30.581 143.363 30.229 C 144.204 29.892 144.972 29.396 145.626 28.769 C 146.275 28.141 146.802 27.397 147.178 26.575 C 147.568 25.732 147.787 24.828 147.833 23.863 L 147.833 23.541 C 147.836 22.579 147.649 21.627 147.281 20.738 C 146.925 19.867 146.406 19.071 145.753 18.394 C 145.098 17.717 144.318 17.175 143.455 16.797 C 142.553 16.402 141.578 16.202 140.594 16.211 C 139.598 16.211 138.69 16.406 137.87 16.797 C 137.05 17.187 136.35 17.72 135.768 18.394 C 135.176 19.084 134.72 19.879 134.423 20.738 C 134.107 21.639 133.948 22.587 133.953 23.541 L 133.952 23.541 Z  M 182.672 34.549 C 182.258 34.963 181.802 35.407 181.304 35.882 C 180.806 36.357 180.258 36.802 179.661 37.215 C 179.06 37.631 178.412 37.974 177.731 38.238 C 177.019 38.51 176.263 38.647 175.501 38.64 C 173.418 38.64 171.499 38.25 169.745 37.468 C 168.034 36.717 166.493 35.627 165.217 34.262 C 163.954 32.906 162.965 31.309 162.253 29.47 C 161.541 27.632 161.184 25.656 161.184 23.541 C 161.184 21.411 161.541 19.431 162.253 17.601 C 162.965 15.771 163.953 14.177 165.217 12.821 C 166.492 11.458 168.033 10.371 169.745 9.627 C 171.499 8.853 173.418 8.466 175.501 8.466 C 176.344 8.466 177.114 8.589 177.811 8.834 C 178.484 9.067 179.124 9.383 179.718 9.776 C 180.293 10.159 180.821 10.592 181.304 11.074 C 181.787 11.557 182.242 12.028 182.671 12.488 L 182.671 1.985 C 182.671 1.495 182.821 1.082 183.119 0.745 C 183.419 0.407 183.866 0.239 184.464 0.239 L 189.634 0.239 C 189.834 0.239 190.044 0.281 190.266 0.365 C 190.489 0.45 190.692 0.568 190.876 0.722 C 191.059 0.875 191.209 1.059 191.324 1.273 C 191.438 1.488 191.496 1.725 191.496 1.985 L 191.496 36.342 C 191.496 37.522 190.876 38.112 189.634 38.112 L 185.13 38.112 C 184.824 38.112 184.586 38.072 184.418 37.996 C 184.252 37.921 184.106 37.807 183.993 37.663 C 183.865 37.494 183.761 37.309 183.683 37.112 C 183.574 36.853 183.459 36.596 183.338 36.342 L 182.671 34.549 L 182.672 34.549 Z  M 169.457 23.541 C 169.449 24.507 169.609 25.468 169.928 26.38 C 170.243 27.26 170.691 28.023 171.273 28.666 C 171.862 29.314 172.578 29.834 173.376 30.194 C 174.196 30.57 175.103 30.757 176.099 30.757 C 177.079 30.757 178.002 30.581 178.868 30.229 C 179.709 29.892 180.478 29.397 181.132 28.769 C 181.781 28.141 182.306 27.396 182.682 26.575 C 183.073 25.732 183.292 24.828 183.338 23.863 L 183.338 23.541 C 183.341 22.579 183.154 21.627 182.786 20.738 C 182.43 19.867 181.911 19.071 181.258 18.394 C 180.603 17.717 179.823 17.175 178.96 16.797 C 178.058 16.402 177.083 16.202 176.099 16.211 C 175.103 16.211 174.195 16.406 173.376 16.797 C 172.556 17.187 171.855 17.72 171.273 18.394 C 170.681 19.084 170.225 19.879 169.928 20.738 C 169.612 21.639 169.453 22.587 169.458 23.541 L 169.457 23.541 Z  M 197.61 2.008 C 197.61 1.518 197.732 1.105 197.977 0.768 C 198.223 0.43 198.644 0.262 199.241 0.262 L 204.871 0.262 C 205.025 0.262 205.186 0.304 205.354 0.388 C 205.531 0.479 205.69 0.599 205.825 0.745 C 205.971 0.898 206.093 1.082 206.193 1.296 C 206.293 1.511 206.343 1.748 206.343 2.008 L 206.343 36.342 C 206.343 36.924 206.178 37.364 205.848 37.663 C 205.519 37.962 205.094 38.111 204.573 38.111 L 199.241 38.111 C 198.644 38.111 198.223 37.961 197.977 37.663 C 197.732 37.364 197.61 36.923 197.61 36.342 L 197.61 2.008 L 197.61 2.008 Z  M 236.31 34.618 C 234.978 35.849 233.437 36.833 231.76 37.525 C 230.062 38.225 228.242 38.58 226.405 38.571 C 224.305 38.571 222.322 38.188 220.453 37.421 C 218.626 36.683 216.957 35.603 215.535 34.239 C 214.118 32.873 212.979 31.246 212.18 29.447 C 211.352 27.609 210.939 25.61 210.939 23.449 C 210.939 22.101 211.103 20.795 211.433 19.531 C 211.752 18.294 212.223 17.102 212.835 15.981 C 213.44 14.878 214.181 13.855 215.041 12.936 C 215.898 12.016 216.876 11.215 217.948 10.557 C 219.038 9.89 220.213 9.372 221.441 9.017 C 222.733 8.645 224.071 8.459 225.416 8.466 C 226.688 8.466 227.921 8.635 229.116 8.972 C 230.311 9.309 231.434 9.784 232.483 10.396 C 233.533 11.009 234.493 11.745 235.367 12.603 C 236.229 13.447 236.985 14.392 237.619 15.418 C 238.247 16.437 238.738 17.534 239.079 18.681 C 239.423 19.838 239.596 21.029 239.596 22.254 C 239.596 23.051 239.584 23.702 239.561 24.208 C 239.538 24.713 239.419 25.116 239.205 25.414 C 238.99 25.714 238.635 25.92 238.136 26.034 C 237.638 26.15 236.906 26.207 235.942 26.207 L 219.396 26.207 C 219.549 27.187 219.859 28.007 220.326 28.667 C 220.759 29.292 221.309 29.826 221.946 30.24 C 222.559 30.631 223.21 30.91 223.9 31.08 C 224.539 31.242 225.194 31.326 225.853 31.332 C 226.405 31.332 226.971 31.274 227.553 31.16 C 228.127 31.047 228.691 30.894 229.243 30.7 C 229.759 30.521 230.258 30.298 230.736 30.033 C 231.188 29.781 231.552 29.516 231.828 29.241 C 232.073 29.041 232.284 28.892 232.46 28.792 C 232.636 28.692 232.824 28.643 233.023 28.643 C 233.223 28.643 233.425 28.713 233.633 28.85 C 233.885 29.026 234.119 29.226 234.333 29.447 L 236.769 32.205 C 236.937 32.405 237.045 32.585 237.091 32.745 C 237.137 32.906 237.16 33.071 237.16 33.239 C 237.16 33.546 237.075 33.81 236.907 34.032 C 236.737 34.255 236.536 34.453 236.309 34.618 L 236.31 34.618 Z  M 225.256 15.475 C 224.658 15.475 224.08 15.594 223.521 15.831 C 222.954 16.073 222.423 16.394 221.946 16.785 C 221.456 17.183 221.016 17.635 220.625 18.141 C 220.252 18.618 219.932 19.134 219.671 19.681 L 231.414 19.681 C 231.106 19.105 230.757 18.552 230.369 18.026 C 230 17.527 229.568 17.079 229.082 16.693 C 228.585 16.302 228.026 15.999 227.427 15.797 C 226.807 15.582 226.083 15.475 225.256 15.475 Z " fill="rgb(255,255,255)"/></g></svg>